<?xml version="1.0" encoding="UTF-8" standalone="no"?>
<svg
   xmlns:dc="http://purl.org/dc/elements/1.1/"
   xmlns:cc="http://creativecommons.org/ns#"
   xmlns:rdf="http://www.w3.org/1999/02/22-rdf-syntax-ns#"
   xmlns:svg="http://www.w3.org/2000/svg"
   xmlns="http://www.w3.org/2000/svg"
   xmlns:sodipodi="http://sodipodi.sourceforge.net/DTD/sodipodi-0.dtd"
   xmlns:inkscape="http://www.inkscape.org/namespaces/inkscape"
   version="1.0"
   width="7.5in"
   height="4.5in"
   viewBox="0 0 539.99999 324.00004"
   preserveAspectRatio="xMidYMid meet"
   id="svg2"
   inkscape:version="0.91 r13725"
   sodipodi:docname="logo-nom.svg">
  <defs
     id="defs20" />
  <sodipodi:namedview
     pagecolor="#000000"
     bordercolor="#666666"
     borderopacity="1"
     objecttolerance="10"
     gridtolerance="10"
     guidetolerance="10"
     inkscape:pageopacity="0"
     inkscape:pageshadow="2"
     inkscape:window-width="1551"
     inkscape:window-height="951"
     id="namedview18"
     showgrid="false"
     inkscape:zoom="0.62933333"
     inkscape:cx="455.06356"
     inkscape:cy="187.5"
     inkscape:window-x="75"
     inkscape:window-y="34"
     inkscape:window-maximized="0"
     inkscape:current-layer="svg2"
     units="in"
     height="8in" />
  <metadata
     id="metadata4">
Created by potrace 1.10, written by Peter Selinger 2001-2011
<rdf:RDF>
  <cc:Work
     rdf:about="">
    <dc:format>image/svg+xml</dc:format>
    <dc:type
       rdf:resource="http://purl.org/dc/dcmitype/StillImage" />
    <dc:title></dc:title>
  </cc:Work>
</rdf:RDF>
</metadata>
  <g
     transform="matrix(0.05,0,0,-0.05,0,324.00004)"
     id="g6"
     style="fill:#ffffff;stroke:none">
    <path
       d="M 1060,5928 C 625,5813 370,5510 370,5110 c 0,-269 23,-326 226,-569 222,-265 307,-460 234,-534 -45,-44 -59,-126 -34,-193 15,-39 16,-72 3,-95 -30,-58 -22,-130 22,-185 28,-36 36,-67 27,-103 -24,-96 60,-211 155,-211 11,0 59,-39 105,-87 143,-147 302,-146 444,0 47,48 102,87 123,87 81,0 151,94 140,188 -7,63 0,96 28,131 41,50 48,123 18,180 -13,23 -12,56 3,95 25,67 11,149 -34,193 -74,74 11,266 241,543 187,225 234,337 233,565 0,558 -637,974 -1244,813 z m 420,-228 c 545,-103 749,-598 405,-984 -158,-177 -260,-343 -308,-501 l -41,-136 -211,5 -211,6 -27,109 c -38,147 -140,322 -285,488 -161,185 -191,251 -191,423 1,390 420,675 869,590 z"
       id="path8"
       inkscape:connector-curvature="0" />
    <path
       d="m 1294,5395 c -23,-16 -31,-39 -23,-61 13,-34 31,-41 177,-64 90,-15 192,-105 192,-169 0,-52 50,-74 90,-41 148,122 -279,450 -436,335 z"
       id="path10"
       inkscape:connector-curvature="0" />
    <path
       d="M 450,2722 C 269,2676 109,2533 52,2365 14,2254 4,568 41,436 80,296 180,176 317,105 l 126,-65 905,0 c 1039,0 1029,-1 1191,161 165,165 163,153 157,1221 -7,1051 0,1007 -177,1166 -161,146 -127,142 -1119,146 -490,1 -917,-4 -950,-12 z m 1852,-286 c 160,-89 160,-91 154,-1082 C 2448,171 2569,292 1388,284 417,278 430,276 324,416 l -54,71 0,895 c 0,1218 -119,1098 1085,1098 857,0 871,-1 947,-44 z"
       id="path12"
       inkscape:connector-curvature="0" />
    <path
       d="m 638,2162 c -65,-66 -74,-133 -29,-221 70,-134 308,-97 337,54 35,185 -175,300 -308,167 z"
       id="path14"
       inkscape:connector-curvature="0" />
    <path
       d="m 1873,2197 c -50,-29 -92,-135 -79,-202 29,-151 267,-188 337,-54 88,171 -94,352 -258,256 z"
       id="path16"
       inkscape:connector-curvature="0" />
  </g>
  <g
     transform="scale(0.98995046,1.0101516)"
     style="font-style:normal;font-weight:normal;font-size:90.00807953px;line-height:125%;font-family:Sans;letter-spacing:0px;word-spacing:0px;fill:#ffffff;fill-opacity:1;stroke:none;stroke-width:1px;stroke-linecap:butt;stroke-linejoin:miter;stroke-opacity:1"
     id="text3400">
    <path
       d="m 197.85406,217.65241 q 6.87562,0 12.00108,1.75016 5.25047,1.75016 8.62577,5.00045 3.50032,3.12528 5.12546,7.50067 1.75016,4.3754 1.75016,9.75088 0,12.12609 -7.12564,18.75168 -7.12564,6.50058 -21.37692,6.50058 l -9.00081,0 0,28.87759 -10.25092,0 0,-76.25684 q 2.25021,-0.50004 4.87544,-0.87508 2.75025,-0.37503 5.37548,-0.62505 2.75025,-0.25002 5.25047,-0.25002 2.62524,-0.12502 4.75043,-0.12502 z m 0.75007,8.8758 q -3.25029,0 -6.25056,0.12501 -3.00027,0 -4.50041,0.25002 l 0,31.25281 8.50077,0 q 9.37584,0 13.87624,-3.75034 4.62542,-3.75033 4.62542,-12.37611 0,-15.50139 -16.25146,-15.50139 z"
       style="font-style:normal;font-variant:normal;font-weight:normal;font-stretch:normal;font-size:125.01121521px;font-family:'Ubuntu Mono';-inkscape-font-specification:'Ubuntu Mono'"
       id="path3407" />
    <path
       d="m 239.85783,295.78442 0,-84.88261 10.37593,-1.75016 0,29.50265 q 2.50022,-1.00009 5.6255,-1.50014 3.12528,-0.62505 6.12555,-0.62505 6.6256,0 11.00099,2.00018 4.5004,1.87517 7.12564,5.37548 2.62524,3.50031 3.75034,8.37575 1.1251,4.87544 1.1251,10.75097 l 0,32.75293 -10.25092,0 0,-30.50273 q 0,-10.75097 -3.00027,-15.12636 -3.00027,-4.5004 -10.75097,-4.5004 -3.25029,0 -6.37557,0.75006 -3.00027,0.62506 -4.37539,1.25012 l 0,48.12931 -10.37593,0 z"
       style="font-style:normal;font-variant:normal;font-weight:normal;font-stretch:normal;font-size:125.01121521px;font-family:'Ubuntu Mono';-inkscape-font-specification:'Ubuntu Mono'"
       id="path3409" />
    <path
       d="m 350.9928,266.78182 q 0,6.87562 -2.00018,12.50112 -1.87517,5.5005 -5.37548,9.50086 -3.50032,4.00035 -8.37575,6.25056 -4.87544,2.12519 -10.62596,2.12519 -5.6255,0 -10.50094,-2.12519 -4.75043,-2.25021 -8.25074,-6.25056 -3.50031,-4.00036 -5.50049,-9.50086 -1.87517,-5.6255 -1.87517,-12.50112 0,-6.87561 1.87517,-12.50112 2.00018,-5.6255 5.50049,-9.50085 3.50031,-4.00036 8.25074,-6.12555 4.87544,-2.2502 10.50094,-2.2502 5.75052,0 10.62596,2.2502 4.87543,2.12519 8.37575,6.12555 3.50031,3.87535 5.37548,9.50085 2.00018,5.62551 2.00018,12.50112 z m -10.62595,0 q 0,-9.87588 -4.25039,-15.50139 -4.25038,-5.75051 -11.50103,-5.75051 -7.12564,0 -11.37602,5.75051 -4.12537,5.62551 -4.12537,15.50139 0,9.75088 4.12537,15.50139 4.25038,5.62551 11.37602,5.62551 7.25065,0 11.50103,-5.62551 4.25039,-5.75051 4.25039,-15.50139 z"
       style="font-style:normal;font-variant:normal;font-weight:normal;font-stretch:normal;font-size:125.01121521px;font-family:'Ubuntu Mono';-inkscape-font-specification:'Ubuntu Mono'"
       id="path3411" />
    <path
       d="m 386.37097,237.77922 24.50219,0 0,8.62577 -24.50219,0 0,27.00243 q 0,4.37539 0.62505,7.12564 0.62506,2.75024 2.00018,4.5004 1.50014,1.62515 3.75034,2.2502 2.2502,0.62506 5.50049,0.62506 4.5004,0 7.25065,-0.75007 2.75025,-0.75007 5.25047,-2.00018 l 1.50014,8.75079 q -1.75016,0.75006 -5.62551,2.00018 -3.75033,1.25011 -9.37584,1.25011 -6.50058,0 -10.62595,-1.50014 -4.12537,-1.50013 -6.50059,-4.5004 -2.2502,-3.00027 -3.12528,-7.37566 -0.87507,-4.50041 -0.87507,-10.37593 l 0,-27.00243 -12.2511,0 0,-8.62577 12.2511,0 0,-16.25146 10.25092,-1.75016 0,18.00162 z"
       style="font-style:normal;font-variant:normal;font-weight:normal;font-stretch:normal;font-size:125.01121521px;font-family:'Ubuntu Mono';-inkscape-font-specification:'Ubuntu Mono'"
       id="path3413" />
    <path
       d="m 476.00401,266.78182 q 0,6.87562 -2.00017,12.50112 -1.87517,5.5005 -5.37549,9.50086 -3.50031,4.00035 -8.37575,6.25056 -4.87544,2.12519 -10.62595,2.12519 -5.62551,0 -10.50094,-2.12519 -4.75043,-2.25021 -8.25074,-6.25056 -3.50032,-4.00036 -5.5005,-9.50086 -1.87517,-5.6255 -1.87517,-12.50112 0,-6.87561 1.87517,-12.50112 2.00018,-5.6255 5.5005,-9.50085 3.50031,-4.00036 8.25074,-6.12555 4.87543,-2.2502 10.50094,-2.2502 5.75051,0 10.62595,2.2502 4.87544,2.12519 8.37575,6.12555 3.50032,3.87535 5.37549,9.50085 2.00017,5.62551 2.00017,12.50112 z m -10.62595,0 q 0,-9.87588 -4.25038,-15.50139 -4.25038,-5.75051 -11.50103,-5.75051 -7.12564,0 -11.37602,5.75051 -4.12537,5.62551 -4.12537,15.50139 0,9.75088 4.12537,15.50139 4.25038,5.62551 11.37602,5.62551 7.25065,0 11.50103,-5.62551 4.25038,-5.75051 4.25038,-15.50139 z"
       style="font-style:normal;font-variant:normal;font-weight:normal;font-stretch:normal;font-size:125.01121521px;font-family:'Ubuntu Mono';-inkscape-font-specification:'Ubuntu Mono'"
       id="path3415" />
    <path
       d="m 489.88027,239.40437 q 5.6255,-1.37513 11.126,-2.12519 5.6255,-0.75007 10.50094,-0.75007 11.62604,0 17.50157,6.00054 6.00054,6.00053 6.00054,19.25172 l 0,34.00305 -10.25092,0 0,-32.12788 q 0,-5.6255 -1.00009,-9.12582 -1.00009,-3.50031 -2.87526,-5.37548 -1.75016,-2.00018 -4.37539,-2.75025 -2.50023,-0.75006 -5.5005,-0.75006 -2.50022,0 -5.37548,0.37503 -2.75025,0.25002 -5.37548,0.75007 l 0,49.00439 -10.37593,0 0,-56.38005 z"
       style="font-style:normal;font-variant:normal;font-weight:normal;font-stretch:normal;font-size:125.01121521px;font-family:'Ubuntu Mono';-inkscape-font-specification:'Ubuntu Mono'"
       id="path3417" />
  </g>
</svg>
