<?xml version="1.0" encoding="UTF-8" standalone="no"?>
<svg
   xmlns:dc="http://purl.org/dc/elements/1.1/"
   xmlns:cc="http://creativecommons.org/ns#"
   xmlns:rdf="http://www.w3.org/1999/02/22-rdf-syntax-ns#"
   xmlns:svg="http://www.w3.org/2000/svg"
   xmlns="http://www.w3.org/2000/svg"
   xmlns:sodipodi="http://sodipodi.sourceforge.net/DTD/sodipodi-0.dtd"
   xmlns:inkscape="http://www.inkscape.org/namespaces/inkscape"
   enable-background="new 0 0 24 24"
   height="73.341667"
   id="Layer_1"
   version="1.1"
   viewBox="0 0 22.000001 22.002501"
   width="73.333336"
   xml:space="preserve"
   sodipodi:docname="logo.svg"
   inkscape:version="0.92.2 (5c3e80d, 2017-08-06)"><metadata
     id="metadata14"><rdf:RDF><cc:Work
         rdf:about=""><dc:format>image/svg+xml</dc:format><dc:type
           rdf:resource="http://purl.org/dc/dcmitype/StillImage" /><dc:title></dc:title></cc:Work></rdf:RDF></metadata><defs
     id="defs12" /><sodipodi:namedview
     pagecolor="#ffffff"
     bordercolor="#666666"
     borderopacity="1"
     objecttolerance="10"
     gridtolerance="10"
     guidetolerance="10"
     inkscape:pageopacity="0"
     inkscape:pageshadow="2"
     inkscape:window-width="640"
     inkscape:window-height="480"
     id="namedview10"
     showgrid="false"
     scale-x="0.4"
     fit-margin-top="0"
     fit-margin-left="0"
     fit-margin-right="0"
     fit-margin-bottom="0"
     inkscape:zoom="9.8333333"
     inkscape:cx="10.571429"
     inkscape:cy="62.766665"
     inkscape:window-x="0"
     inkscape:window-y="26"
     inkscape:window-maximized="0"
     inkscape:current-layer="Layer_1" /><g
     id="icon"
     transform="translate(-1,-0.99750042)"><circle
       cx="12"
       cy="11.9975"
       r="11"
       id="circle2"
       style="fill:#8c9eff" /><path
       d="m 16.775,8.4375 c 0,0 -1.3612,-1.0652 -2.9688,-1.1875 l -0.1449,0.2897 c 1.4535,0.3557 2.1203,0.8654 2.8167,1.4915 -1.2009,-0.613 -2.3866,-1.1875 -4.4531,-1.1875 -2.0665,0 -3.2523,0.5745 -4.4531,1.1875 0.6965,-0.6261 1.4897,-1.192 2.8167,-1.4915 L 10.2436,7.25 C 8.5572,7.4094 7.275,8.4375 7.275,8.4375 c 0,0 -1.5203,2.2043 -1.7813,6.5313 C 7.0262,16.736 9.3531,16.75 9.3531,16.75 L 9.8397,16.1013 C 9.0138,15.8142 8.081,15.3015 7.275,14.375 c 0.9613,0.7273 2.4121,1.4844 4.75,1.4844 2.3379,0 3.7887,-0.757 4.75,-1.4844 -0.806,0.9265 -1.7388,1.4393 -2.5647,1.7263 l 0.4866,0.6487 c 0,0 2.3269,-0.014 3.8594,-1.7813 C 18.2953,10.6418 16.775,8.4375 16.775,8.4375 Z m -6.6797,5.3438 c -0.5739,0 -1.0391,-0.5317 -1.0391,-1.1875 0,-0.6558 0.4652,-1.1875 1.0391,-1.1875 0.5739,0 1.0391,0.5317 1.0391,1.1875 0,0.6558 -0.4652,1.1875 -1.0391,1.1875 z m 3.8594,0 c -0.5739,0 -1.0391,-0.5317 -1.0391,-1.1875 0,-0.6558 0.4652,-1.1875 1.0391,-1.1875 0.5739,0 1.0391,0.5317 1.0391,1.1875 0,0.6558 -0.4653,1.1875 -1.0391,1.1875 z"
       id="path4"
       inkscape:connector-curvature="0"
       style="fill:#ffffff" /><path
       d="M 4.2218,19.7782 C 6.2124,21.7688 8.9624,23 12,23 18.0751,23 23,18.0751 23,12 23,8.9624 21.7688,6.2124 19.7782,4.2218 Z"
       id="path6"
       inkscape:connector-curvature="0"
       style="opacity:0.1;fill:#231f20" /></g></svg>