<?xml version="1.0" standalone="no"?>
<!DOCTYPE svg PUBLIC "-//W3C//DTD SVG 20010904//EN"
 "http://www.w3.org/TR/2001/REC-SVG-20010904/DTD/svg10.dtd">
<svg version="1.0" xmlns="http://www.w3.org/2000/svg"
 width="137.000000pt" height="300.000000pt" viewBox="0 0 137.000000 300.000000"
 preserveAspectRatio="xMidYMid meet">
<metadata>
Created by potrace 1.10, written by Peter Selinger 2001-2011
</metadata>
<g transform="translate(0.000000,300.000000) scale(0.100000,-0.100000)"
fill="#000000" stroke="none">
<path d="M530 2964 c-134 -35 -250 -124 -311 -236 -33 -61 -34 -67 -34 -173 0
-134 11 -163 113 -285 76 -90 132 -187 132 -227 0 -13 -7 -31 -15 -39 -22 -23
-29 -64 -17 -97 7 -20 8 -36 2 -48 -16 -28 -12 -64 10 -92 15 -18 19 -34 14
-52 -12 -48 30 -105 77 -105 6 0 30 -20 53 -44 71 -73 151 -73 222 1 23 23 51
43 62 43 10 0 32 12 47 26 24 22 27 31 23 68 -4 32 0 48 13 65 21 25 24 62 9
90 -6 12 -5 28 2 48 12 33 5 74 -17 97 -37 37 6 132 121 271 93 112 116 169
116 283 0 73 -4 90 -35 155 -59 125 -172 214 -322 252 -74 19 -192 18 -265 -1z
m210 -114 c130 -25 246 -114 275 -213 32 -107 11 -185 -73 -279 -78 -88 -129
-171 -153 -250 l-21 -69 -105 3 -106 3 -14 55 c-19 73 -69 161 -142 244 -81
92 -96 125 -95 211 0 118 57 202 179 259 90 43 163 53 255 36z"/>
<path d="M647 2698 c-12 -9 -16 -20 -11 -31 6 -17 15 -20 88 -32 45 -7 96 -52
96 -85 0 -25 25 -37 45 -20 38 31 -3 110 -75 146 -59 30 -120 39 -143 22z"/>
<path d="M225 1361 c-57 -14 -106 -44 -145 -88 -70 -79 -70 -83 -70 -577 0
-269 4 -455 10 -478 20 -70 70 -130 138 -165 l64 -33 452 0 c519 0 514 -1 596
81 82 82 81 76 78 610 -3 455 -3 465 -25 505 -12 22 -40 57 -63 78 -81 73 -64
71 -560 73 -245 1 -458 -2 -475 -6z m926 -143 c25 -14 46 -37 59 -64 20 -40
21 -57 18 -477 -3 -422 -4 -436 -24 -463 -11 -15 -33 -37 -48 -48 -27 -20 -41
-21 -462 -24 -485 -3 -479 -4 -532 66 l-27 35 0 448 c0 438 0 448 21 476 11
15 36 38 54 51 33 22 33 22 468 22 428 0 435 0 473 -22z"/>
</g>
</svg>
