<?xml version="1.0" standalone="no"?>
<!DOCTYPE svg PUBLIC "-//W3C//DTD SVG 20010904//EN"
 "http://www.w3.org/TR/2001/REC-SVG-20010904/DTD/svg10.dtd">
<svg version="1.0" xmlns="http://www.w3.org/2000/svg"
 width="137.000000pt" height="300.000000pt" viewBox="0 0 137.000000 300.000000"
 preserveAspectRatio="xMidYMid meet">
<metadata>
Created by potrace 1.10, written by Peter Selinger 2001-2011
</metadata>
<g transform="translate(0.000000,300.000000) scale(0.050000,-0.050000)"
fill="#ffffff" stroke="none">
<path d="M1060 5928 c-435 -115 -690 -418 -690 -818 0 -269 23 -326 226 -569
222 -265 307 -460 234 -534 -45 -44 -59 -126 -34 -193 15 -39 16 -72 3 -95
-30 -58 -22 -130 22 -185 28 -36 36 -67 27 -103 -24 -96 60 -211 155 -211 11
0 59 -39 105 -87 143 -147 302 -146 444 0 47 48 102 87 123 87 81 0 151 94
140 188 -7 63 0 96 28 131 41 50 48 123 18 180 -13 23 -12 56 3 95 25 67 11
149 -34 193 -74 74 11 266 241 543 187 225 234 337 233 565 0 558 -637 974
-1244 813z m420 -228 c545 -103 749 -598 405 -984 -158 -177 -260 -343 -308
-501 l-41 -136 -211 5 -211 6 -27 109 c-38 147 -140 322 -285 488 -161 185
-191 251 -191 423 1 390 420 675 869 590z"/>
<path d="M1294 5395 c-23 -16 -31 -39 -23 -61 13 -34 31 -41 177 -64 90 -15
192 -105 192 -169 0 -52 50 -74 90 -41 148 122 -279 450 -436 335z"/>
<path d="M450 2722 c-181 -46 -341 -189 -398 -357 -38 -111 -48 -1797 -11
-1929 39 -140 139 -260 276 -331 l126 -65 905 0 c1039 0 1029 -1 1191 161 165
165 163 153 157 1221 -7 1051 0 1007 -177 1166 -161 146 -127 142 -1119 146
-490 1 -917 -4 -950 -12z m1852 -286 c160 -89 160 -91 154 -1082 -8 -1183 113
-1062 -1068 -1070 -971 -6 -958 -8 -1064 132 l-54 71 0 895 c0 1218 -119 1098
1085 1098 857 0 871 -1 947 -44z"/>
<path d="M638 2162 c-65 -66 -74 -133 -29 -221 70 -134 308 -97 337 54 35 185
-175 300 -308 167z"/>
<path d="M1873 2197 c-50 -29 -92 -135 -79 -202 29 -151 267 -188 337 -54 88
171 -94 352 -258 256z"/>
</g>
</svg>
